HIERARCHY
ROOT root
{
	OFFSET	0	13.1	24.9
	CHANNELS 6  Xposition Yposition Zposition Xrotation Yrotation Zrotation
	JOINT spine_1
	{
		OFFSET	0	9.99999	0
		CHANNELS 3  Xrotation Yrotation Zrotation
		JOINT spine_2
		{
			OFFSET	0	112	-10
			CHANNELS 3  Xrotation Yrotation Zrotation
			JOINT spine_3
			{
				OFFSET	0	206.5	19.3
				CHANNELS 3  Xrotation Yrotation Zrotation
				JOINT spine_4
				{
					OFFSET	0	110.4	14.6
					CHANNELS 3  Xrotation Yrotation Zrotation
					JOINT neck_1
					{
						OFFSET	0	71.8	-50.3
						CHANNELS 3  Xrotation Yrotation Zrotation
						JOINT neck_2
						{
							OFFSET	0	86.2	-25.8
							CHANNELS 3  Xrotation Yrotation Zrotation
							JOINT head_ee
							{
								OFFSET	0	179.8	-8.7
								CHANNELS 3  Xrotation Yrotation Zrotation
								End Site
								{
									OFFSET	1	0	0
								}
							}
						}
					}
					JOINT left_clavicle
					{
						OFFSET	-43.2	22.4	-70.8
						CHANNELS 3  Xrotation Yrotation Zrotation
						JOINT left_shoulder
						{
							OFFSET	-93.9	-5.79999	48.7
							CHANNELS 3  Xrotation Yrotation Zrotation
							JOINT left_elbow
							{
								OFFSET	-291.4	-30.8	15.2
								CHANNELS 3  Xrotation Yrotation Zrotation
								JOINT left_lowarm_twist
								{
									OFFSET	-110.7	-3.89999	13.6
									CHANNELS 3  Xrotation Yrotation Zrotation
									JOINT left_hand
									{
										OFFSET	-110.7	-3.89999	13.6
										CHANNELS 3  Xrotation Yrotation Zrotation
										JOINT left_ee
										{
											OFFSET	-80.8	-5.10001	12.1
											CHANNELS 3  Xrotation Yrotation Zrotation
											End Site
											{
												OFFSET	1	0	0
											}
										}
									}
								}
							}
						}
					}
					JOINT right_clavicle
					{
						OFFSET	43.2	22.4	-70.8
						CHANNELS 3  Xrotation Yrotation Zrotation
						JOINT right_shoulder
						{
							OFFSET	93.9	-5.79999	48.7
							CHANNELS 3  Xrotation Yrotation Zrotation
							JOINT right_elbow
							{
								OFFSET	291.4	-30.8	15.2
								CHANNELS 3  Xrotation Yrotation Zrotation
								JOINT right_lowarm_twist
								{
									OFFSET	110.7	-3.89999	13.6
									CHANNELS 3  Xrotation Yrotation Zrotation
									JOINT right_hand
									{
										OFFSET	110.7	-3.89999	13.6
										CHANNELS 3  Xrotation Yrotation Zrotation
										JOINT right_ee
										{
											OFFSET	80.8	-5.10001	12.1
											CHANNELS 3  Xrotation Yrotation Zrotation
											End Site
											{
												OFFSET	1	0	0
											}
										}
									}
								}
							}
						}
					}
				}
			}
		}
	}
	JOINT left_hip
	{
		OFFSET	-82.8	-127.5	0.300001
		CHANNELS 3  Xrotation Yrotation Zrotation
		JOINT left_knee
		{
			OFFSET	-28.2	-396.7	2.2
			CHANNELS 3  Xrotation Yrotation Zrotation
			JOINT left_ankle
			{
				OFFSET	-11.7	-411.3	35.4
				CHANNELS 3  Xrotation Yrotation Zrotation
				JOINT left_toes
				{
					OFFSET	0	-60	-88.6
					CHANNELS 3  Xrotation Yrotation Zrotation
					JOINT left_foot_ee
					{
						OFFSET	-22.5	-16.5	-42.2
						CHANNELS 3  Xrotation Yrotation Zrotation
						End Site
						{
							OFFSET	1	0	0
						}
					}
				}
			}
		}
	}
	JOINT right_hip
	{
		OFFSET	82.8	-127.5	0.300001
		CHANNELS 3  Xrotation Yrotation Zrotation
		JOINT right_knee
		{
			OFFSET	28.2	-396.7	2.2
			CHANNELS 3  Xrotation Yrotation Zrotation
			JOINT right_ankle
			{
				OFFSET	11.7	-411.3	35.4
				CHANNELS 3  Xrotation Yrotation Zrotation
				JOINT right_toes
				{
					OFFSET	0	-60	-88.6
					CHANNELS 3  Xrotation Yrotation Zrotation
					JOINT right_foot_ee
					{
						OFFSET	22.5	-16.5	-42.2
						CHANNELS 3  Xrotation Yrotation Zrotation
						End Site
						{
							OFFSET	1	0	0
						}
					}
				}
			}
		}
	}
}
MOTION
Frames: 5
Frame Time: 0.02
3177.02 653.055 -1669.29 16.2226304002 54.3091022757 -13.4456642538 -4.40461 0.465932 1.60564 -4.40325 0.362831 1.63203 -4.39013 -0.116274 1.66781 -4.39398 0.148548 1.66525 -4.2417 6.55324 -0.171668 -4.19722 12.1299 0.885333 -0.0 0.0 -0.0 1.23345 13.5794 3.62049 -15.7483 -10.7292 74.5207 0.338826 -9.52818 0.0282382 -81.705 -8.03772 5.25354 3.29716 -28.5836 8.93295 -0.0 0.0 -0.0 4.35872 28.8425 -6.16817 16.4451 15.0798 -59.0703 1.97082 44.3076 -0.802488 22.3674 -0.238587 2.82918 -2.24829 -7.24883 11.6777 0.0 0.0 0.0 15.8196 10.4417 -5.70326 -0.932021 0.037253 0.138177 -0.414353 14.2273 0.0610083 -32.0891 0.0 0.0 -0.0 0.0 -0.0 -21.67 -3.9236 7.30223 -13.2516 -0.314989 -2.00473 33.5491 28.5073 5.14008 -15.8999 0.0 0.0 0.0 0.0 0.0 
3177.02 653.055 -1669.29 16.3837195664 54.7018808425 -13.6435196574 -4.40461 0.465932 1.60564 -4.40325 0.362831 1.63203 -4.39013 -0.116274 1.66781 -4.39398 0.148548 1.66525 -4.2417 6.55324 -0.171668 -4.19722 12.1299 0.885333 -0.0 0.0 -0.0 1.23345 13.5794 3.62049 -15.7483 -10.7292 74.5207 0.338826 -9.52818 0.0282382 -81.705 -8.03772 5.25354 3.29716 -28.5836 8.93295 -0.0 0.0 -0.0 4.35872 28.8425 -6.16817 16.4451 15.0798 -59.0703 1.97082 44.3076 -0.802488 22.3674 -0.238587 2.82918 -2.24829 -7.24883 11.6777 0.0 0.0 0.0 15.8196 10.4417 -5.70326 -0.932021 0.037253 0.138177 -0.414353 14.2273 0.0610083 -32.0891 0.0 0.0 -0.0 0.0 -0.0 -21.67 -3.9236 7.30223 -13.2516 -0.314989 -2.00473 33.5491 28.5073 5.14008 -15.8999 0.0 0.0 0.0 0.0 0.0 
3147.99452371 656.644 -1675.79202667 18.7380416582 54.6617758727 -15.3253390463 -4.41442 0.529565 1.60198 -4.4131 0.426567 1.63242 -4.39807 -0.0554903 1.68631 -4.40198 0.211489 1.67392 -5.92641 5.92274 0.371447 -5.91341 10.6703 1.48019 -0.0 0.0 -0.0 1.47223 13.4891 4.00454 -15.6214 -11.0033 72.845 0.34153 -9.60279 0.0286876 -81.6875 -8.03551 5.25384 3.43105 -28.5761 9.79367 -0.0 0.0 -0.0 4.27584 28.9704 -5.97436 13.4039 14.6039 -59.7465 1.85846 42.6293 -0.725187 21.9977 -0.24367 2.78223 -2.14053 -7.40258 10.8874 0.0 0.0 0.0 13.6348 10.4358 -5.38313 -4.96626 0.172382 0.742442 2.60673 14.426 -0.381156 -30.678 0.0 0.0 -0.0 0.0 -0.0 -24.0277 -4.54779 6.41318 -17.0918 -0.318924 -2.5938 32.4286 26.2697 4.88546 -15.9606 0.0 0.0 0.0 0.0 0.0 
3147.94954567 656.644 -1675.58788138 18.9226403915 55.0428908267 -15.5510993076 -4.41442 0.529565 1.60198 -4.4131 0.426567 1.63242 -4.39807 -0.0554903 1.68631 -4.40198 0.211489 1.67392 -5.92641 5.92274 0.371447 -5.91341 10.6703 1.48019 -0.0 0.0 -0.0 1.47223 13.4891 4.00454 -15.6214 -11.0033 72.845 0.34153 -9.60279 0.0286876 -81.6875 -8.03551 5.25384 3.43105 -28.5761 9.79367 -0.0 0.0 -0.0 4.27584 28.9704 -5.97436 13.4039 14.6039 -59.7465 1.85846 42.6293 -0.725187 21.9977 -0.24367 2.78223 -2.14053 -7.40258 10.8874 0.0 0.0 0.0 13.6348 10.4358 -5.38313 -4.96626 0.172382 0.742442 2.60673 14.426 -0.381156 -30.678 0.0 0.0 -0.0 0.0 -0.0 -24.0277 -4.54779 6.41318 -17.0918 -0.318924 -2.5938 32.4286 26.2697 4.88546 -15.9606 0.0 0.0 0.0 0.0 0.0 
3097.88806595 654.779 -1691.2890693 22.1809038132 54.8579363444 -17.9401134062 -4.45664 0.41305 1.63129 -4.45521 0.308424 1.65426 -4.4435 -0.176343 1.6735 -4.44739 0.0901294 1.68035 -8.03984 4.90344 1.48638 -8.04253 8.10436 2.5423 -0.0 0.0 -0.0 1.9191 12.2029 4.64928 -14.3273 -11.8306 69.8119 0.445343 -12.441 0.048541 -80.6525 -7.90456 5.27048 3.36755 -27.4561 9.99295 -0.0 0.0 -0.0 4.69476 30.0855 -6.76083 9.99018 14.0259 -60.8632 1.46345 35.938 -0.474653 21.31 -0.25232 2.69481 -1.94959 -7.57754 9.54181 0.0 0.0 0.0 11.0703 9.82137 -5.40791 -7.96802 0.245135 1.1973 4.9263 12.1772 -0.713342 -30.1398 0.0 0.0 -0.0 0.0 -0.0 -26.3115 -3.86962 5.45547 -20.5028 -0.289323 -3.11625 29.7045 22.6304 4.39689 -16.3674 0.0 0.0 0.0 0.0 0.0 
